HIERARCHY
ROOT Hips
{
    OFFSET   0.000000   0.000000   0.000000
    CHANNELS 6 Xposition Yposition Zposition Zrotation Xrotation Yrotation
    JOINT Chest
    {
        OFFSET   0.000000   8.007240   0.000000
        CHANNELS 3 Zrotation Xrotation Yrotation
        JOINT Chest2
        {
            OFFSET   0.000000  22.077100   0.000000
            CHANNELS 3 Zrotation Xrotation Yrotation
            JOINT Neck
            {
                OFFSET   0.000000  23.254800   0.000000
                CHANNELS 3 Zrotation Xrotation Yrotation
                JOINT Head
                {
                    OFFSET   0.000000  14.370000   1.956600
                    CHANNELS 3 Zrotation Xrotation Yrotation
                    End Site
                    {
                        OFFSET   0.000000  19.566000   0.000000
                    }
                }
            }
            JOINT LeftCollar
            {
                OFFSET   3.911900  19.017000  -0.467064
                CHANNELS 3 Zrotation Xrotation Yrotation
                JOINT LeftShoulder
                {
                    OFFSET  10.383700   0.000000   0.000000
                    CHANNELS 3 Zrotation Xrotation Yrotation
                    JOINT LeftElbow
                    {
                        OFFSET  26.662100   0.001476   0.000517
                        CHANNELS 3 Zrotation Xrotation Yrotation
                        JOINT LeftWrist
                        {
                            OFFSET  28.869000  -0.000025  -0.000106
                            CHANNELS 3 Zrotation Xrotation Yrotation
                            JOINT LeftFinger0
                            {
                                OFFSET   2.044660  -2.323460   3.252850
                                CHANNELS 3 Zrotation Xrotation Yrotation
                                JOINT LeftFinger01
                                {
                                    OFFSET   3.088130   0.000000   0.000000
                                    CHANNELS 3 Zrotation Xrotation Yrotation
                                    JOINT LeftFinger02
                                    {
                                        OFFSET   2.639460   0.000000   0.000000
                                        CHANNELS 3 Zrotation Xrotation Yrotation
                                        End Site
                                        {
                                            OFFSET   2.582190   0.000000   0.000000
                                        }
                                    }
                                }
                            }
                            JOINT LeftFinger1
                            {
                                OFFSET   8.364480   0.000000   3.252850
                                CHANNELS 3 Zrotation Xrotation Yrotation
                                JOINT LeftFinger11
                                {
                                    OFFSET   4.646930   0.000000   0.000000
                                    CHANNELS 3 Zrotation Xrotation Yrotation
                                    JOINT LeftFinger12
                                    {
                                        OFFSET   2.323460   0.000000   0.000000
                                        CHANNELS 3 Zrotation Xrotation Yrotation
                                        End Site
                                        {
                                            OFFSET   2.273050   0.000000   0.000000
                                        }
                                    }
                                }
                            }
                            JOINT LeftFinger2
                            {
                                OFFSET   8.364490   0.000015   1.078090
                                CHANNELS 3 Zrotation Xrotation Yrotation
                                JOINT LeftFinger21
                                {
                                    OFFSET   5.111620   0.000000   0.000000
                                    CHANNELS 3 Zrotation Xrotation Yrotation
                                    JOINT LeftFinger22
                                    {
                                        OFFSET   2.788160   0.000016   0.000000
                                        CHANNELS 3 Zrotation Xrotation Yrotation
                                        End Site
                                        {
                                            OFFSET   2.727660   0.000000   0.000000
                                        }
                                    }
                                }
                            }
                            JOINT LeftFinger3
                            {
                                OFFSET   7.899780   0.000017  -1.078090
                                CHANNELS 3 Zrotation Xrotation Yrotation
                                JOINT LeftFinger31
                                {
                                    OFFSET   4.646930   0.000000   0.000000
                                    CHANNELS 3 Zrotation Xrotation Yrotation
                                    JOINT LeftFinger32
                                    {
                                        OFFSET   2.323470   0.000000   0.000000
                                        CHANNELS 3 Zrotation Xrotation Yrotation
                                        End Site
                                        {
                                            OFFSET   2.273050   0.000000   0.000000
                                        }
                                    }
                                }
                            }
                            JOINT LeftFinger4
                            {
                                OFFSET   7.435090   0.000000  -3.252850
                                CHANNELS 3 Zrotation Xrotation Yrotation
                                JOINT LeftFinger41
                                {
                                    OFFSET   3.717550   0.000000   0.000000
                                    CHANNELS 3 Zrotation Xrotation Yrotation
                                    JOINT LeftFinger42
                                    {
                                        OFFSET   1.858770   0.000000   0.000000
                                        CHANNELS 3 Zrotation Xrotation Yrotation
                                        End Site
                                        {
                                            OFFSET   1.818440   0.000000   0.000000
                                        }
                                    }
                                }
                            }
                        }
                    }
                }
            }
            JOINT RightCollar
            {
                OFFSET  -3.911900  19.017000  -0.467063
                CHANNELS 3 Zrotation Xrotation Yrotation
                JOINT RightShoulder
                {
                    OFFSET -10.383700   0.000019   0.000000
                    CHANNELS 3 Zrotation Xrotation Yrotation
                    JOINT RightElbow
                    {
                        OFFSET -26.662100   0.001175   0.000102
                        CHANNELS 3 Zrotation Xrotation Yrotation
                        JOINT RightWrist
                        {
                            OFFSET -28.869000   0.000016  -0.000079
                            CHANNELS 3 Zrotation Xrotation Yrotation
                            JOINT RightFinger0
                            {
                                OFFSET  -2.044660  -2.323490   3.252850
                                CHANNELS 3 Zrotation Xrotation Yrotation
                                JOINT RightFinger01
                                {
                                    OFFSET  -3.088140   0.000000   0.000000
                                    CHANNELS 3 Zrotation Xrotation Yrotation
                                    JOINT RightFinger02
                                    {
                                        OFFSET  -2.639460   0.000000   0.000000
                                        CHANNELS 3 Zrotation Xrotation Yrotation
                                        End Site
                                        {
                                            OFFSET  -2.582190   0.000000   0.000000
                                        }
                                    }
                                }
                            }
                            JOINT RightFinger1
                            {
                                OFFSET  -8.364480   0.000000   3.252850
                                CHANNELS 3 Zrotation Xrotation Yrotation
                                JOINT RightFinger11
                                {
                                    OFFSET  -4.646930   0.000000   0.000000
                                    CHANNELS 3 Zrotation Xrotation Yrotation
                                    JOINT RightFinger12
                                    {
                                        OFFSET  -2.323470   0.000000   0.000000
                                        CHANNELS 3 Zrotation Xrotation Yrotation
                                        End Site
                                        {
                                            OFFSET  -2.273050   0.000000   0.000000
                                        }
                                    }
                                }
                            }
                            JOINT RightFinger2
                            {
                                OFFSET  -8.364480   0.000000   1.078090
                                CHANNELS 3 Zrotation Xrotation Yrotation
                                JOINT RightFinger21
                                {
                                    OFFSET  -5.111620   0.000000   0.000000
                                    CHANNELS 3 Zrotation Xrotation Yrotation
                                    JOINT RightFinger22
                                    {
                                        OFFSET  -2.788160   0.000000   0.000000
                                        CHANNELS 3 Zrotation Xrotation Yrotation
                                        End Site
                                        {
                                            OFFSET  -2.727660   0.000000   0.000000
                                        }
                                    }
                                }
                            }
                            JOINT RightFinger3
                            {
                                OFFSET  -7.899780   0.000000  -1.078090
                                CHANNELS 3 Zrotation Xrotation Yrotation
                                JOINT RightFinger31
                                {
                                    OFFSET  -4.646930   0.000000   0.000000
                                    CHANNELS 3 Zrotation Xrotation Yrotation
                                    JOINT RightFinger32
                                    {
                                        OFFSET  -2.323470   0.000000   0.000000
                                        CHANNELS 3 Zrotation Xrotation Yrotation
                                        End Site
                                        {
                                            OFFSET  -2.273050   0.000000   0.000000
                                        }
                                    }
                                }
                            }
                            JOINT RightFinger4
                            {
                                OFFSET  -7.435090   0.000000  -3.252850
                                CHANNELS 3 Zrotation Xrotation Yrotation
                                JOINT RightFinger41
                                {
                                    OFFSET  -3.717550   0.000000   0.000000
                                    CHANNELS 3 Zrotation Xrotation Yrotation
                                    JOINT RightFinger42
                                    {
                                        OFFSET  -1.858770   0.000000   0.000000
                                        CHANNELS 3 Zrotation Xrotation Yrotation
                                        End Site
                                        {
                                            OFFSET  -1.818440   0.000000   0.000000
                                        }
                                    }
                                }
                            }
                        }
                    }
                }
            }
        }
    }
    JOINT LeftHip
    {
        OFFSET   9.783040   0.000000   0.000000
        CHANNELS 3 Zrotation Xrotation Yrotation
        JOINT LeftKnee
        {
            OFFSET   0.000032 -41.789100  -0.002222
            CHANNELS 3 Zrotation Xrotation Yrotation
            JOINT LeftAnkle
            {
                OFFSET   0.000087 -41.133200  -0.000135
                CHANNELS 3 Zrotation Xrotation Yrotation
                JOINT LeftToe
                {
                    OFFSET   0.000000  -6.358960  14.674500
                    CHANNELS 3 Zrotation Xrotation Yrotation
                    End Site
                    {
                        OFFSET   0.000000   0.000000   3.913200
                    }
                }
            }
        }
    }
    JOINT RightHip
    {
        OFFSET  -9.783040   0.000000   0.000000
        CHANNELS 3 Zrotation Xrotation Yrotation
        JOINT RightKnee
        {
            OFFSET   0.000047 -41.789100  -0.000896
            CHANNELS 3 Zrotation Xrotation Yrotation
            JOINT RightAnkle
            {
                OFFSET  -0.000117 -41.133300  -0.000248
                CHANNELS 3 Zrotation Xrotation Yrotation
                JOINT RightToe
                {
                    OFFSET   0.000000  -6.358970  14.674500
                    CHANNELS 3 Zrotation Xrotation Yrotation
                    End Site
                    {
                        OFFSET   0.000000   0.000000   3.913200
                    }
                }
            }
        }
    }
}
MOTION
Frames: 4
Frame Time:   0.016667
-11.197600  88.028600  -2.737870  -5.101530 -22.363300   2.139200   5.822200  11.406500  -3.221920  12.679700  22.392100  -7.866700   3.112420  -2.021220   0.113751   5.131020  -4.062210   8.118460  -9.176720  -2.846360  -1.337020  11.454000  36.312700 -91.781200  29.581200   1.399710 -92.184900  63.046800   3.576410 -42.313300  44.306900  49.665000 -89.094700 -40.266900   0.000424   0.000547 -15.279100  -0.001132  -0.005514 -62.651300   0.166356  -0.088316 -51.260300   0.002216  -0.002555 -38.445200  -0.000107  -0.002254 -84.950000  -0.002152  -0.003340 -84.950000   0.006250  -0.000408 -63.712500   0.001406  -0.001714 -88.997800  -4.997260   0.080524 -90.484600   0.000941   0.004676 -67.863500   0.000129   0.003041 -88.985500  -9.998770   0.180323 -110.000000  -0.002148  -0.002279 -80.000000   0.004517  -0.006422   8.163080  -8.579900  14.914300  17.228100  48.322400  59.765600 -19.565500  18.221600  83.985900 -95.716200  20.346300  51.559700 -26.137400  27.204800  62.868100  51.825600   0.001620  -0.001901  27.855900   0.001673  -0.002530  -4.313910   0.921358 -12.084600   0.004299  -0.001941  -0.001717   0.003020  -0.001355  -0.002091   7.052990  -1.507780 -12.006400   7.211560  -0.002298  -0.000703   4.802880  -0.001693  -0.005158   9.721490  -2.073090 -11.922900   9.938000  -0.002345   0.001199   6.618720  -0.001577   0.001348  10.568300  -2.812720 -14.735900  16.398200   0.001213   0.001216  10.921200   0.000592  -0.001573  10.863300   6.627350   0.352535   9.709980  30.794800  -0.020498 -14.391200 -13.861500  -1.891110   0.000000   0.000000   0.000000  12.243400  18.895800  -3.547680   1.524790   4.580890 -10.122300  -7.731130  -4.482890  -6.828070   0.000000   0.000000   0.000000
-11.204600  88.029700  -2.721980  -5.075930 -22.349000   2.182180   5.815530  11.403600  -3.221480  12.665700  22.387000  -7.864310   3.105850  -2.012360   0.113581   5.120100  -4.044380   8.141720  -9.165980  -2.842470  -1.312060  11.473400  36.311300 -91.807400  29.584800   1.392060 -92.180400  63.065600   3.598670 -42.289300  44.325300  49.668300 -89.118700 -40.236000   0.000327   0.000455 -15.251600  -0.001107  -0.005602 -62.633400   0.165801  -0.088278 -51.245600   0.002161  -0.002505 -38.434000  -0.000208  -0.002262 -84.975400  -0.002141  -0.003273 -84.975400   0.006430  -0.000394 -63.731500   0.001331  -0.001731 -88.997900  -4.997290   0.080604 -90.512700   0.000968   0.004670 -67.884600   0.000131   0.002994 -88.985400  -9.998720   0.180404 -110.000000  -0.002126  -0.002249 -80.000000   0.004564  -0.006489   8.169140  -8.576830  14.915400  17.264800  48.382000  59.821800 -19.564500  18.263400  83.850200 -95.719900  20.280800  51.594400 -26.157100  27.256300  62.903100  51.817600   0.001631  -0.001928  27.850600   0.001717  -0.002538  -4.312670   0.921686 -12.079300   0.004349  -0.001969  -0.001749   0.003054  -0.001376  -0.002028   7.102320  -1.517920 -12.015900   7.262080  -0.002271  -0.000653   4.836540  -0.001682  -0.005129   9.732280  -2.073330 -11.933100   9.948840  -0.002315   0.001074   6.624510  -0.001565   0.001426  10.580100  -2.819090 -14.748000  16.417400   0.001221   0.001208  10.934000   0.000602  -0.001612  10.852300   6.623270   0.352579   9.715420  30.775500  -0.030677 -14.392800 -13.854300  -1.914670  -0.000000   0.000000   0.000000  12.237900  18.896200  -3.556420   1.525970   4.567160 -10.123600  -7.735200  -4.487490  -6.852420  -0.000000   0.000000  -0.000000
-11.211700  88.030800  -2.704760  -5.050110 -22.334000   2.222550   5.808570  11.398900  -3.220650  12.650300  22.378200  -7.860060   3.100870  -2.002310   0.113413   5.111810  -4.024140   8.160800  -9.155510  -2.839460  -1.288960  11.495700  36.308400 -91.833600  29.592200   1.377380 -92.172600  63.084100   3.621880 -42.265500  44.340600  49.670300 -89.138600 -40.208900   0.000229   0.000310 -15.227000  -0.001079  -0.005689 -62.615500   0.165263  -0.088259 -51.230900   0.002106  -0.002454 -38.423200  -0.000308  -0.002271 -84.997700  -0.002129  -0.003207 -84.997700   0.006609  -0.000372 -63.748300   0.001259  -0.001744 -88.997900  -4.997330   0.080680 -90.535900   0.000995   0.004664 -67.901900   0.000133   0.002950 -88.985400  -9.998680   0.180481 -110.000000  -0.002106  -0.002220 -80.000000   0.004610  -0.006553   8.174710  -8.574080  14.916300  17.286000  48.424600  59.864700 -19.566100  18.289200  83.758200 -95.721800  20.217700  51.624900 -26.175200  27.309300  62.936900  51.813400   0.001642  -0.001980  27.847700   0.001763  -0.002546  -4.312010   0.923883 -12.070200   0.004402  -0.001997  -0.001779   0.003088  -0.001398  -0.001967   7.135430  -1.528050 -12.025300   7.296390  -0.002243  -0.000603   4.859390  -0.001670  -0.005102   9.738850  -2.073770 -11.943400   9.955100  -0.002284   0.000948   6.627570  -0.001553   0.001503  10.586500  -2.823360 -14.764400  16.428600   0.001229   0.001196  10.941500   0.000612  -0.001651  10.840200   6.620970   0.352585   9.719760  30.755100  -0.038520 -14.394300 -13.848000  -1.935430  -0.000000   0.000000   0.000000  12.231300  18.897600  -3.565670   1.526570   4.553650 -10.123800  -7.738970  -4.492790  -6.875170  -0.000000   0.000000   0.000000
-11.220700  88.031900  -2.686040  -5.023410 -22.318200   2.261380   5.801280  11.394000  -3.219770  12.634500  22.369100  -7.855970   3.097270  -1.990980   0.113240   5.105740  -4.001550   8.176050  -9.145220  -2.837410  -1.266830  11.514000  36.303400 -91.858000  29.601500   1.361960 -92.166100  63.096900   3.645540 -42.239900  44.344500  49.664100 -89.143600 -40.189200   0.000151   0.000209 -15.208700  -0.001054  -0.005769 -62.610100   0.164737  -0.088255 -51.226500   0.002059  -0.002390 -38.419900  -0.000408  -0.002291 -85.022200  -0.002116  -0.003147 -85.022200   0.006788  -0.000356 -63.766700   0.001183  -0.001751 -88.997900  -4.997360   0.080751 -90.553600   0.001023   0.004664 -67.915200   0.000136   0.002911 -88.985300  -9.998630   0.180557 -110.000000  -0.002085  -0.002194 -80.000000   0.004655  -0.006620   8.180110  -8.572130  14.917200  17.219700  48.395100  59.798700 -19.533300  18.252000  83.827900 -95.718600  20.157000  51.647100 -26.192900  27.373700  62.973900  51.812100   0.001658  -0.002054  27.846600   0.001817  -0.002557  -4.364760   0.935024 -12.040200   0.004459  -0.002023  -0.001807   0.003121  -0.001419  -0.001905   7.131000  -1.527660 -12.025200   7.291700  -0.002218  -0.000549   4.855480  -0.001653  -0.005081   9.734350  -2.074330 -11.943200   9.950980  -0.002247   0.000822   6.627460  -0.001541   0.001582  10.582200  -2.823360 -14.776400  16.426100   0.001236   0.001188  10.937200   0.000621  -0.001687  10.826600   6.619800   0.352444   9.722190  30.734200  -0.042394 -14.395500 -13.841100  -1.955540   0.000000   0.000000   0.000000  12.223500  18.899400  -3.576940   1.525690   4.540800 -10.122100  -7.742660  -4.499350  -6.896310   0.000000   0.000000   0.000000
